<svg width="256" height="256" viewBox="0 0 256 256" fill="none" xmlns="http://www.w3.org/2000/svg">
<path d="M0 32C0 14.3269 14.3269 0 32 0H224C241.673 0 256 14.3269 256 32V224C256 241.673 241.673 256 224 256H32C14.3269 256 0 241.673 0 224V32Z" fill="#20242A"/>
<path fill-rule="evenodd" clip-rule="evenodd" d="M189.2 230H66.8C44.2668 230 26 211.733 26 189.2V66.8C26 44.2668 44.2668 26 66.8 26H189.2C211.733 26 230 44.2668 230 66.8V189.2C230 211.733 211.733 230 189.2 230ZM51.5 92.3V97.4C51.5 103.033 56.0667 107.6 61.7 107.6H69.35C79.2083 107.6 87.2 115.592 87.2 125.45V130.55C87.2 140.408 79.2083 148.4 69.35 148.4H61.7C56.0667 148.4 51.5 152.967 51.5 158.6V163.7C51.5 186.233 69.7668 204.5 92.3 204.5H163.7C186.233 204.5 204.5 186.233 204.5 163.7V156.688C204.5 151.054 199.933 146.488 194.3 146.488H174.219C171.226 146.488 168.8 144.061 168.8 141.069C168.8 138.076 171.226 135.65 174.219 135.65H196.85C201.075 135.65 204.5 132.225 204.5 128C204.5 123.775 201.075 120.35 196.85 120.35H175.175C171.654 120.35 168.8 117.496 168.8 113.975C168.8 110.454 171.654 107.6 175.175 107.6H194.3C199.933 107.6 204.5 103.033 204.5 97.4V92.3C204.5 69.7668 186.233 51.5 163.7 51.5H92.3C69.7668 51.5 51.5 69.7668 51.5 92.3ZM66.8 120.35H59.15C54.925 120.35 51.5 123.775 51.5 128C51.5 132.225 54.925 135.65 59.15 135.65H66.8C71.025 135.65 74.45 132.225 74.45 128C74.45 123.775 71.025 120.35 66.8 120.35Z" fill="#FFD50F"/>
</svg>
